STARTFONT 2.1
FONT -jmk-Neep-Bold-R-Normal--11-100-75-75-C-60-ISO8859-9
SIZE 10 75 75
FONTBOUNDINGBOX 6 11 0 -2
STARTPROPERTIES 29
FONTNAME_REGISTRY ""
FOUNDRY "jmk"
FAMILY_NAME "Neep"
WEIGHT_NAME "Bold"
SLANT "R"
SETWIDTH_NAME "Normal"
ADD_STYLE_NAME ""
PIXEL_SIZE 11
POINT_SIZE 100
RESOLUTION_X 75
RESOLUTION_Y 75
SPACING "C"
AVERAGE_WIDTH 60
CHARSET_REGISTRY "ISO8859"
CHARSET_ENCODING "9"
COPYRIGHT "Jim Knoble <jmknoble@pobox.com>"
WEIGHT 280
RESOLUTION 75
X_HEIGHT 5
FIGURE_WIDTH 6
QUAD_WIDTH 6
FONT_ASCENT 9
FONT_DESCENT 2
_XMBDFED_INFO "Edited with xmbdfed 3.7."
RELATIVE_WEIGHT 70
RELATIVE_SETWIDTH 50
CAP_HEIGHT 7
UNDERLINE_POSITION -1
UNDERLINE_THICKNESS 1
ENDPROPERTIES
CHARS 128
STARTCHAR nil
ENCODING 128
SWIDTH 576 0
DWIDTH 6 0
BBX 6 11 0 -2
BITMAP
00
F8
88
88
88
88
88
88
88
F8
00
ENDCHAR
STARTCHAR nil
ENCODING 129
SWIDTH 576 0
DWIDTH 6 0
BBX 6 11 0 -2
BITMAP
00
F8
88
88
88
88
88
88
88
F8
00
ENDCHAR
STARTCHAR nil
ENCODING 130
SWIDTH 576 0
DWIDTH 6 0
BBX 6 11 0 -2
BITMAP
00
F8
88
88
88
88
88
88
88
F8
00
ENDCHAR
STARTCHAR nil
ENCODING 131
SWIDTH 576 0
DWIDTH 6 0
BBX 6 11 0 -2
BITMAP
00
F8
88
88
88
88
88
88
88
F8
00
ENDCHAR
STARTCHAR nil
ENCODING 132
SWIDTH 576 0
DWIDTH 6 0
BBX 6 11 0 -2
BITMAP
00
F8
88
88
88
88
88
88
88
F8
00
ENDCHAR
STARTCHAR nil
ENCODING 133
SWIDTH 576 0
DWIDTH 6 0
BBX 6 11 0 -2
BITMAP
00
F8
88
88
88
88
88
88
88
F8
00
ENDCHAR
STARTCHAR nil
ENCODING 134
SWIDTH 576 0
DWIDTH 6 0
BBX 6 11 0 -2
BITMAP
00
F8
88
88
88
88
88
88
88
F8
00
ENDCHAR
STARTCHAR nil
ENCODING 135
SWIDTH 576 0
DWIDTH 6 0
BBX 6 11 0 -2
BITMAP
00
F8
88
88
88
88
88
88
88
F8
00
ENDCHAR
STARTCHAR nil
ENCODING 136
SWIDTH 576 0
DWIDTH 6 0
BBX 6 11 0 -2
BITMAP
00
F8
88
88
88
88
88
88
88
F8
00
ENDCHAR
STARTCHAR nil
ENCODING 137
SWIDTH 576 0
DWIDTH 6 0
BBX 6 11 0 -2
BITMAP
00
F8
88
88
88
88
88
88
88
F8
00
ENDCHAR
STARTCHAR nil
ENCODING 138
SWIDTH 576 0
DWIDTH 6 0
BBX 6 11 0 -2
BITMAP
00
F8
88
88
88
88
88
88
88
F8
00
ENDCHAR
STARTCHAR nil
ENCODING 139
SWIDTH 576 0
DWIDTH 6 0
BBX 6 11 0 -2
BITMAP
00
F8
88
88
88
88
88
88
88
F8
00
ENDCHAR
STARTCHAR nil
ENCODING 140
SWIDTH 576 0
DWIDTH 6 0
BBX 6 11 0 -2
BITMAP
00
F8
88
88
88
88
88
88
88
F8
00
ENDCHAR
STARTCHAR nil
ENCODING 141
SWIDTH 576 0
DWIDTH 6 0
BBX 6 11 0 -2
BITMAP
00
F8
88
88
88
88
88
88
88
F8
00
ENDCHAR
STARTCHAR nil
ENCODING 142
SWIDTH 576 0
DWIDTH 6 0
BBX 6 11 0 -2
BITMAP
00
F8
88
88
88
88
88
88
88
F8
00
ENDCHAR
STARTCHAR nil
ENCODING 143
SWIDTH 576 0
DWIDTH 6 0
BBX 6 11 0 -2
BITMAP
00
F8
88
88
88
88
88
88
88
F8
00
ENDCHAR
STARTCHAR nil
ENCODING 144
SWIDTH 576 0
DWIDTH 6 0
BBX 6 11 0 -2
BITMAP
00
F8
88
88
88
88
88
88
88
F8
00
ENDCHAR
STARTCHAR nil
ENCODING 145
SWIDTH 576 0
DWIDTH 6 0
BBX 6 11 0 -2
BITMAP
00
F8
88
88
88
88
88
88
88
F8
00
ENDCHAR
STARTCHAR nil
ENCODING 146
SWIDTH 576 0
DWIDTH 6 0
BBX 6 11 0 -2
BITMAP
00
F8
88
88
88
88
88
88
88
F8
00
ENDCHAR
STARTCHAR nil
ENCODING 147
SWIDTH 576 0
DWIDTH 6 0
BBX 6 11 0 -2
BITMAP
00
F8
88
88
88
88
88
88
88
F8
00
ENDCHAR
STARTCHAR nil
ENCODING 148
SWIDTH 576 0
DWIDTH 6 0
BBX 6 11 0 -2
BITMAP
00
F8
88
88
88
88
88
88
88
F8
00
ENDCHAR
STARTCHAR nil
ENCODING 149
SWIDTH 576 0
DWIDTH 6 0
BBX 6 11 0 -2
BITMAP
00
F8
88
88
88
88
88
88
88
F8
00
ENDCHAR
STARTCHAR nil
ENCODING 150
SWIDTH 576 0
DWIDTH 6 0
BBX 6 11 0 -2
BITMAP
00
F8
88
88
88
88
88
88
88
F8
00
ENDCHAR
STARTCHAR nil
ENCODING 151
SWIDTH 576 0
DWIDTH 6 0
BBX 6 11 0 -2
BITMAP
00
F8
88
88
88
88
88
88
88
F8
00
ENDCHAR
STARTCHAR nil
ENCODING 152
SWIDTH 576 0
DWIDTH 6 0
BBX 6 11 0 -2
BITMAP
00
F8
88
88
88
88
88
88
88
F8
00
ENDCHAR
STARTCHAR nil
ENCODING 153
SWIDTH 576 0
DWIDTH 6 0
BBX 6 11 0 -2
BITMAP
00
F8
88
88
88
88
88
88
88
F8
00
ENDCHAR
STARTCHAR nil
ENCODING 154
SWIDTH 576 0
DWIDTH 6 0
BBX 6 11 0 -2
BITMAP
00
F8
88
88
88
88
88
88
88
F8
00
ENDCHAR
STARTCHAR nil
ENCODING 155
SWIDTH 576 0
DWIDTH 6 0
BBX 6 11 0 -2
BITMAP
00
F8
88
88
88
88
88
88
88
F8
00
ENDCHAR
STARTCHAR nil
ENCODING 156
SWIDTH 576 0
DWIDTH 6 0
BBX 6 11 0 -2
BITMAP
00
F8
88
88
88
88
88
88
88
F8
00
ENDCHAR
STARTCHAR nil
ENCODING 157
SWIDTH 576 0
DWIDTH 6 0
BBX 6 11 0 -2
BITMAP
00
F8
88
88
88
88
88
88
88
F8
00
ENDCHAR
STARTCHAR nil
ENCODING 158
SWIDTH 576 0
DWIDTH 6 0
BBX 6 11 0 -2
BITMAP
00
F8
88
88
88
88
88
88
88
F8
00
ENDCHAR
STARTCHAR nil
ENCODING 159
SWIDTH 576 0
DWIDTH 6 0
BBX 6 11 0 -2
BITMAP
00
F8
88
88
88
88
88
88
88
F8
00
ENDCHAR
STARTCHAR U+00a0 no-break space
ENCODING 160
SWIDTH 576 0
DWIDTH 6 0
BBX 6 11 0 -2
BITMAP
00
00
00
00
00
00
00
00
00
00
00
ENDCHAR
STARTCHAR U+00a1 inverted exclamation mark
ENCODING 161
SWIDTH 576 0
DWIDTH 6 0
BBX 6 11 0 -2
BITMAP
00
00
00
00
30
00
30
30
30
30
30
ENDCHAR
STARTCHAR U+00a2 cent sign
ENCODING 162
SWIDTH 576 0
DWIDTH 6 0
BBX 6 11 0 -2
BITMAP
00
00
00
20
70
D8
C0
D8
70
20
00
ENDCHAR
STARTCHAR U+00a3 pound sign
ENCODING 163
SWIDTH 576 0
DWIDTH 6 0
BBX 6 11 0 -2
BITMAP
00
00
30
78
60
F0
60
60
F8
00
00
ENDCHAR
STARTCHAR U+00a4 currency sign
ENCODING 164
SWIDTH 576 0
DWIDTH 6 0
BBX 6 11 0 -2
BITMAP
00
00
00
D8
70
D8
D8
70
D8
00
00
ENDCHAR
STARTCHAR U+00a5 yen sign
ENCODING 165
SWIDTH 576 0
DWIDTH 6 0
BBX 6 11 0 -2
BITMAP
00
00
48
78
30
78
30
78
30
00
00
ENDCHAR
STARTCHAR U+00a6 broken bar
ENCODING 166
SWIDTH 576 0
DWIDTH 6 0
BBX 6 11 0 -2
BITMAP
00
30
30
30
30
00
30
30
30
30
00
ENDCHAR
STARTCHAR U+00a7 section sign
ENCODING 167
SWIDTH 576 0
DWIDTH 6 0
BBX 6 11 0 -2
BITMAP
00
78
C0
70
D8
D8
70
18
F0
00
00
ENDCHAR
STARTCHAR U+00a8 diaresis
ENCODING 168
SWIDTH 576 0
DWIDTH 6 0
BBX 6 11 0 -2
BITMAP
00
D8
D8
00
00
00
00
00
00
00
00
ENDCHAR
STARTCHAR U+00a9 copyright sign
ENCODING 169
SWIDTH 576 0
DWIDTH 6 0
BBX 6 11 0 -2
BITMAP
00
78
84
B4
E4
E4
B4
84
78
00
00
ENDCHAR
STARTCHAR U+00aa feminine ordinal indicator
ENCODING 170
SWIDTH 576 0
DWIDTH 6 0
BBX 6 11 0 -2
BITMAP
00
70
18
78
D8
78
00
F8
00
00
00
ENDCHAR
STARTCHAR U+00ab left-pointing double angle quotation mark
ENCODING 171
SWIDTH 576 0
DWIDTH 6 0
BBX 6 11 0 -2
BITMAP
00
00
00
24
6C
D8
6C
24
00
00
00
ENDCHAR
STARTCHAR U+00ac not sign
ENCODING 172
SWIDTH 576 0
DWIDTH 6 0
BBX 6 11 0 -2
BITMAP
00
00
00
00
00
F8
18
18
00
00
00
ENDCHAR
STARTCHAR U+00ad soft hyphen
ENCODING 173
SWIDTH 576 0
DWIDTH 6 0
BBX 6 11 0 -2
BITMAP
00
00
00
00
00
70
70
00
00
00
00
ENDCHAR
STARTCHAR U+00ae registered sign
ENCODING 174
SWIDTH 576 0
DWIDTH 6 0
BBX 6 11 0 -2
BITMAP
00
78
84
F4
E4
E4
E4
84
78
00
00
ENDCHAR
STARTCHAR U+00af macron
ENCODING 175
SWIDTH 576 0
DWIDTH 6 0
BBX 6 11 0 -2
BITMAP
00
F8
F8
00
00
00
00
00
00
00
00
ENDCHAR
STARTCHAR U+00b0 degree sign
ENCODING 176
SWIDTH 576 0
DWIDTH 6 0
BBX 6 11 0 -2
BITMAP
00
70
D8
D8
70
00
00
00
00
00
00
ENDCHAR
STARTCHAR U+00b1 plus-minus sign
ENCODING 177
SWIDTH 576 0
DWIDTH 6 0
BBX 6 11 0 -2
BITMAP
00
00
30
30
FC
30
30
00
FC
FC
00
ENDCHAR
STARTCHAR U+00b2 superscript two
ENCODING 178
SWIDTH 576 0
DWIDTH 6 0
BBX 6 11 0 -2
BITMAP
00
60
F0
20
60
F0
00
00
00
00
00
ENDCHAR
STARTCHAR U+00b3 superscript three
ENCODING 179
SWIDTH 576 0
DWIDTH 6 0
BBX 6 11 0 -2
BITMAP
00
F0
60
30
F0
60
00
00
00
00
00
ENDCHAR
STARTCHAR U+00b4 acute accent
ENCODING 180
SWIDTH 576 0
DWIDTH 6 0
BBX 6 11 0 -2
BITMAP
00
38
60
00
00
00
00
00
00
00
00
ENDCHAR
STARTCHAR U+00b5 micro sign
ENCODING 181
SWIDTH 576 0
DWIDTH 6 0
BBX 6 11 0 -2
BITMAP
00
00
00
00
D8
D8
D8
D8
EC
C0
00
ENDCHAR
STARTCHAR U+00b6 pilcrow sign
ENCODING 182
SWIDTH 576 0
DWIDTH 6 0
BBX 6 11 0 -2
BITMAP
00
00
78
F8
E8
68
28
28
28
00
00
ENDCHAR
STARTCHAR U+00b7 middle dot
ENCODING 183
SWIDTH 576 0
DWIDTH 6 0
BBX 6 11 0 -2
BITMAP
00
00
00
00
30
78
30
00
00
00
00
ENDCHAR
STARTCHAR U+00b8 cedilla
ENCODING 184
SWIDTH 576 0
DWIDTH 6 0
BBX 6 11 0 -2
BITMAP
00
00
00
00
00
00
00
00
20
30
60
ENDCHAR
STARTCHAR U+00b9 superscript one
ENCODING 185
SWIDTH 576 0
DWIDTH 6 0
BBX 6 11 0 -2
BITMAP
00
60
E0
60
60
60
00
00
00
00
00
ENDCHAR
STARTCHAR U+00ba masculine ordinal indicator
ENCODING 186
SWIDTH 576 0
DWIDTH 6 0
BBX 6 11 0 -2
BITMAP
00
70
D8
D8
D8
70
00
F8
00
00
00
ENDCHAR
STARTCHAR U+00bb right-pointing double angle quotation mark
ENCODING 187
SWIDTH 576 0
DWIDTH 6 0
BBX 6 11 0 -2
BITMAP
00
00
00
90
D8
6C
D8
90
00
00
00
ENDCHAR
STARTCHAR U+00bc vulgar fraction one quarter
ENCODING 188
SWIDTH 576 0
DWIDTH 6 0
BBX 6 11 0 -2
BITMAP
60
E0
60
60
68
18
38
78
18
00
00
ENDCHAR
STARTCHAR U+00bd vulgar fraction one half
ENCODING 189
SWIDTH 576 0
DWIDTH 6 0
BBX 6 11 0 -2
BITMAP
60
E0
60
60
70
78
18
30
78
00
00
ENDCHAR
STARTCHAR U+00be vulgar fraction three quarters
ENCODING 190
SWIDTH 576 0
DWIDTH 6 0
BBX 6 11 0 -2
BITMAP
00
F0
60
30
F0
68
18
38
78
18
00
ENDCHAR
STARTCHAR U+00bf inverted question mark
ENCODING 191
SWIDTH 576 0
DWIDTH 6 0
BBX 6 11 0 -2
BITMAP
00
00
00
00
30
00
30
30
60
C0
78
ENDCHAR
STARTCHAR U+00c0 latin capital letter A with grave
ENCODING 192
SWIDTH 576 0
DWIDTH 6 0
BBX 6 11 0 -2
BITMAP
E0
30
00
70
D8
D8
F8
D8
D8
00
00
ENDCHAR
STARTCHAR U+00c1 latin capital letter A with acute
ENCODING 193
SWIDTH 576 0
DWIDTH 6 0
BBX 6 11 0 -2
BITMAP
38
60
00
70
D8
D8
F8
D8
D8
00
00
ENDCHAR
STARTCHAR U+00c2 latin capital letter A with circumflex
ENCODING 194
SWIDTH 576 0
DWIDTH 6 0
BBX 6 11 0 -2
BITMAP
70
D8
00
70
D8
D8
F8
D8
D8
00
00
ENDCHAR
STARTCHAR U+00c3 latin capital letter A with tilde
ENCODING 195
SWIDTH 576 0
DWIDTH 6 0
BBX 6 11 0 -2
BITMAP
74
B8
00
70
D8
D8
F8
D8
D8
00
00
ENDCHAR
STARTCHAR U+00c4 latin capital letter A with diaresis
ENCODING 196
SWIDTH 576 0
DWIDTH 6 0
BBX 6 11 0 -2
BITMAP
D8
D8
00
70
D8
D8
F8
D8
D8
00
00
ENDCHAR
STARTCHAR U+00c5 latin capital letter A with ring above
ENCODING 197
SWIDTH 576 0
DWIDTH 6 0
BBX 6 11 0 -2
BITMAP
70
D8
70
70
D8
D8
F8
D8
D8
00
00
ENDCHAR
STARTCHAR U+00c6 latin capital ligature AE
ENCODING 198
SWIDTH 576 0
DWIDTH 6 0
BBX 6 11 0 -2
BITMAP
00
00
7C
F8
D8
FC
D8
D8
DC
00
00
ENDCHAR
STARTCHAR U+00c7 latin capital letter C with cedilla
ENCODING 199
SWIDTH 576 0
DWIDTH 6 0
BBX 6 11 0 -2
BITMAP
00
00
70
D8
C0
C0
C0
D8
70
30
60
ENDCHAR
STARTCHAR U+00c8 latin capital letter E with grave
ENCODING 200
SWIDTH 576 0
DWIDTH 6 0
BBX 6 11 0 -2
BITMAP
E0
30
00
F8
C0
F0
C0
C0
F8
00
00
ENDCHAR
STARTCHAR U+00c9 latin capital letter E with acute
ENCODING 201
SWIDTH 576 0
DWIDTH 6 0
BBX 6 11 0 -2
BITMAP
38
60
00
F8
C0
F0
C0
C0
F8
00
00
ENDCHAR
STARTCHAR U+00ca latin capital letter E with circumflex
ENCODING 202
SWIDTH 576 0
DWIDTH 6 0
BBX 6 11 0 -2
BITMAP
70
D8
00
F8
C0
F0
C0
C0
F8
00
00
ENDCHAR
STARTCHAR U+00cb latin capital letter E with diaresis
ENCODING 203
SWIDTH 576 0
DWIDTH 6 0
BBX 6 11 0 -2
BITMAP
D8
D8
00
F8
C0
F0
C0
C0
F8
00
00
ENDCHAR
STARTCHAR U+00cc latin capital letter I with grave
ENCODING 204
SWIDTH 576 0
DWIDTH 6 0
BBX 6 11 0 -2
BITMAP
E0
30
00
78
30
30
30
30
78
00
00
ENDCHAR
STARTCHAR U+00cd latin capital letter I with acute
ENCODING 205
SWIDTH 576 0
DWIDTH 6 0
BBX 6 11 0 -2
BITMAP
38
60
00
78
30
30
30
30
78
00
00
ENDCHAR
STARTCHAR U+00ce latin capital letter I with circumflex
ENCODING 206
SWIDTH 576 0
DWIDTH 6 0
BBX 6 11 0 -2
BITMAP
70
D8
00
78
30
30
30
30
78
00
00
ENDCHAR
STARTCHAR U+00cf latin capital letter I with diaresis
ENCODING 207
SWIDTH 576 0
DWIDTH 6 0
BBX 6 11 0 -2
BITMAP
D8
D8
00
78
30
30
30
30
78
00
00
ENDCHAR
STARTCHAR U+011e latin capital letter G with breve
ENCODING 208
SWIDTH 576 0
DWIDTH 6 0
BBX 6 11 0 -2
BITMAP
88
70
00
70
D8
C0
D8
D8
78
00
00
ENDCHAR
STARTCHAR U+00d1 latin capital letter N with tilde
ENCODING 209
SWIDTH 576 0
DWIDTH 6 0
BBX 6 11 0 -2
BITMAP
74
B8
00
98
D8
F8
F8
D8
C8
00
00
ENDCHAR
STARTCHAR U+00d2 latin capital letter O with grave
ENCODING 210
SWIDTH 576 0
DWIDTH 6 0
BBX 6 11 0 -2
BITMAP
E0
30
00
70
D8
D8
D8
D8
70
00
00
ENDCHAR
STARTCHAR U+00d3 latin capital letter O with acute
ENCODING 211
SWIDTH 576 0
DWIDTH 6 0
BBX 6 11 0 -2
BITMAP
38
60
00
70
D8
D8
D8
D8
70
00
00
ENDCHAR
STARTCHAR U+00d4 latin capital letter O with circumflex
ENCODING 212
SWIDTH 576 0
DWIDTH 6 0
BBX 6 11 0 -2
BITMAP
70
D8
00
70
D8
D8
D8
D8
70
00
00
ENDCHAR
STARTCHAR U+00d5 latin capital letter O with tilde
ENCODING 213
SWIDTH 576 0
DWIDTH 6 0
BBX 6 11 0 -2
BITMAP
74
B8
00
70
D8
D8
D8
D8
70
00
00
ENDCHAR
STARTCHAR U+00d6 latin capital letter O with diaresis
ENCODING 214
SWIDTH 576 0
DWIDTH 6 0
BBX 6 11 0 -2
BITMAP
D8
D8
00
70
D8
D8
D8
D8
70
00
00
ENDCHAR
STARTCHAR U+00d7 multiplication sign
ENCODING 215
SWIDTH 576 0
DWIDTH 6 0
BBX 6 11 0 -2
BITMAP
00
00
00
00
00
D8
70
70
D8
00
00
ENDCHAR
STARTCHAR U+00d8 latin capital letter O with stroke
ENCODING 216
SWIDTH 576 0
DWIDTH 6 0
BBX 6 11 0 -2
BITMAP
00
00
78
D8
D8
F8
D8
D8
F0
00
00
ENDCHAR
STARTCHAR U+00d9 latin capital letter U with grave
ENCODING 217
SWIDTH 576 0
DWIDTH 6 0
BBX 6 11 0 -2
BITMAP
E0
30
00
D8
D8
D8
D8
D8
70
00
00
ENDCHAR
STARTCHAR U+00da latin capital letter U with acute
ENCODING 218
SWIDTH 576 0
DWIDTH 6 0
BBX 6 11 0 -2
BITMAP
38
60
00
D8
D8
D8
D8
D8
70
00
00
ENDCHAR
STARTCHAR U+00db latin capital letter U with circumflex
ENCODING 219
SWIDTH 576 0
DWIDTH 6 0
BBX 6 11 0 -2
BITMAP
70
D8
00
D8
D8
D8
D8
D8
70
00
00
ENDCHAR
STARTCHAR U+00dc latin capital letter U with diaresis
ENCODING 220
SWIDTH 576 0
DWIDTH 6 0
BBX 6 11 0 -2
BITMAP
D8
D8
00
D8
D8
D8
D8
D8
70
00
00
ENDCHAR
STARTCHAR U+0130 latin capital letter I with dot above
ENCODING 221
SWIDTH 576 0
DWIDTH 6 0
BBX 6 11 0 -2
BITMAP
30
30
00
78
30
30
30
30
78
00
00
ENDCHAR
STARTCHAR U+015e latin capital letter S with cedilla
ENCODING 222
SWIDTH 576 0
DWIDTH 6 0
BBX 6 11 0 -2
BITMAP
00
00
70
D8
E0
70
38
D8
70
30
60
ENDCHAR
STARTCHAR U+00df latin small letter sharp s
ENCODING 223
SWIDTH 576 0
DWIDTH 6 0
BBX 6 11 0 -2
BITMAP
00
00
70
D8
F0
D8
D8
D8
F0
C0
00
ENDCHAR
STARTCHAR U+00e0 latin small letter a with grave
ENCODING 224
SWIDTH 576 0
DWIDTH 6 0
BBX 6 11 0 -2
BITMAP
00
E0
30
00
70
18
78
D8
78
00
00
ENDCHAR
STARTCHAR U+00e1 latin small letter a with acute
ENCODING 225
SWIDTH 576 0
DWIDTH 6 0
BBX 6 11 0 -2
BITMAP
00
38
60
00
70
18
78
D8
78
00
00
ENDCHAR
STARTCHAR U+00e2 latin small letter a with circumflex
ENCODING 226
SWIDTH 576 0
DWIDTH 6 0
BBX 6 11 0 -2
BITMAP
00
70
D8
00
70
18
78
D8
78
00
00
ENDCHAR
STARTCHAR U+00e3 latin small letter a with tilde
ENCODING 227
SWIDTH 576 0
DWIDTH 6 0
BBX 6 11 0 -2
BITMAP
00
74
B8
00
70
18
78
D8
78
00
00
ENDCHAR
STARTCHAR U+00e4 latin small letter a with diaresis
ENCODING 228
SWIDTH 576 0
DWIDTH 6 0
BBX 6 11 0 -2
BITMAP
00
D8
D8
00
70
18
78
D8
78
00
00
ENDCHAR
STARTCHAR U+00e5 latin small letter a with ring above
ENCODING 229
SWIDTH 576 0
DWIDTH 6 0
BBX 6 11 0 -2
BITMAP
70
D8
70
00
70
18
78
D8
78
00
00
ENDCHAR
STARTCHAR U+00e6 latin small ligature ae
ENCODING 230
SWIDTH 576 0
DWIDTH 6 0
BBX 6 11 0 -2
BITMAP
00
00
00
00
F0
68
78
B0
F8
00
00
ENDCHAR
STARTCHAR U+00e7 latin small letter c with cedilla
ENCODING 231
SWIDTH 576 0
DWIDTH 6 0
BBX 6 11 0 -2
BITMAP
00
00
00
00
70
D8
C0
D8
70
30
60
ENDCHAR
STARTCHAR U+00e8 latin small letter e with grave
ENCODING 232
SWIDTH 576 0
DWIDTH 6 0
BBX 6 11 0 -2
BITMAP
00
E0
30
00
70
D8
F8
C0
78
00
00
ENDCHAR
STARTCHAR U+00e9 latin small letter e with acute
ENCODING 233
SWIDTH 576 0
DWIDTH 6 0
BBX 6 11 0 -2
BITMAP
00
38
60
00
70
D8
F8
C0
78
00
00
ENDCHAR
STARTCHAR U+00ea latin small letter e with circumflex
ENCODING 234
SWIDTH 576 0
DWIDTH 6 0
BBX 6 11 0 -2
BITMAP
00
70
D8
00
70
D8
F8
C0
78
00
00
ENDCHAR
STARTCHAR U+00eb latin small letter e with diaresis
ENCODING 235
SWIDTH 576 0
DWIDTH 6 0
BBX 6 11 0 -2
BITMAP
00
D8
D8
00
70
D8
F8
C0
78
00
00
ENDCHAR
STARTCHAR U+00ec latin small letter i with grave
ENCODING 236
SWIDTH 576 0
DWIDTH 6 0
BBX 6 11 0 -2
BITMAP
00
E0
30
00
70
30
30
30
30
00
00
ENDCHAR
STARTCHAR U+00ed latin small letter i with acute
ENCODING 237
SWIDTH 576 0
DWIDTH 6 0
BBX 6 11 0 -2
BITMAP
00
38
60
00
70
30
30
30
30
00
00
ENDCHAR
STARTCHAR U+00ee latin small letter i with circumflex
ENCODING 238
SWIDTH 576 0
DWIDTH 6 0
BBX 6 11 0 -2
BITMAP
00
70
D8
00
70
30
30
30
30
00
00
ENDCHAR
STARTCHAR U+00ef latin small letter i with diaresis
ENCODING 239
SWIDTH 576 0
DWIDTH 6 0
BBX 6 11 0 -2
BITMAP
00
D8
D8
00
70
30
30
30
30
00
00
ENDCHAR
STARTCHAR U+011f latin small letter g with breve
ENCODING 240
SWIDTH 576 0
DWIDTH 6 0
BBX 6 11 0 -2
BITMAP
00
88
70
00
68
D8
D8
D8
78
18
70
ENDCHAR
STARTCHAR U+00f1 latin small letter n with tilde
ENCODING 241
SWIDTH 576 0
DWIDTH 6 0
BBX 6 11 0 -2
BITMAP
00
74
B8
00
B0
D8
D8
D8
D8
00
00
ENDCHAR
STARTCHAR U+00f2 latin small letter o with grave
ENCODING 242
SWIDTH 576 0
DWIDTH 6 0
BBX 6 11 0 -2
BITMAP
00
E0
30
00
70
D8
D8
D8
70
00
00
ENDCHAR
STARTCHAR U+00f3 latin small letter o with acute
ENCODING 243
SWIDTH 576 0
DWIDTH 6 0
BBX 6 11 0 -2
BITMAP
00
38
60
00
70
D8
D8
D8
70
00
00
ENDCHAR
STARTCHAR U+00f4 latin small letter o with circumflex
ENCODING 244
SWIDTH 576 0
DWIDTH 6 0
BBX 6 11 0 -2
BITMAP
00
70
D8
00
70
D8
D8
D8
70
00
00
ENDCHAR
STARTCHAR U+00f5 latin small letter o with tilde
ENCODING 245
SWIDTH 576 0
DWIDTH 6 0
BBX 6 11 0 -2
BITMAP
00
74
B8
00
70
D8
D8
D8
70
00
00
ENDCHAR
STARTCHAR U+00f6 latin small letter o with diaresis
ENCODING 246
SWIDTH 576 0
DWIDTH 6 0
BBX 6 11 0 -2
BITMAP
00
D8
D8
00
70
D8
D8
D8
70
00
00
ENDCHAR
STARTCHAR U+00f7 division sign
ENCODING 247
SWIDTH 576 0
DWIDTH 6 0
BBX 6 11 0 -2
BITMAP
00
30
30
00
FC
FC
00
30
30
00
00
ENDCHAR
STARTCHAR U+00f8 latin small letter o with stroke
ENCODING 248
SWIDTH 576 0
DWIDTH 6 0
BBX 6 11 0 -2
BITMAP
00
00
00
00
78
D8
F8
D8
F0
00
00
ENDCHAR
STARTCHAR U+00f9 latin small letter u with grave
ENCODING 249
SWIDTH 576 0
DWIDTH 6 0
BBX 6 11 0 -2
BITMAP
00
E0
30
00
D8
D8
D8
D8
68
00
00
ENDCHAR
STARTCHAR U+00fa latin small letter u with acute
ENCODING 250
SWIDTH 576 0
DWIDTH 6 0
BBX 6 11 0 -2
BITMAP
00
38
60
00
D8
D8
D8
D8
68
00
00
ENDCHAR
STARTCHAR U+00fb latin small letter u with circumflex
ENCODING 251
SWIDTH 576 0
DWIDTH 6 0
BBX 6 11 0 -2
BITMAP
00
70
D8
00
D8
D8
D8
D8
68
00
00
ENDCHAR
STARTCHAR U+00fc latin small letter u with diaresis
ENCODING 252
SWIDTH 576 0
DWIDTH 6 0
BBX 6 11 0 -2
BITMAP
00
D8
D8
00
D8
D8
D8
D8
68
00
00
ENDCHAR
STARTCHAR U+0131 latin small letter dotless i
ENCODING 253
SWIDTH 576 0
DWIDTH 6 0
BBX 6 11 0 -2
BITMAP
00
00
00
00
70
30
30
30
30
00
00
ENDCHAR
STARTCHAR U+015f latin small letter s with cedilla
ENCODING 254
SWIDTH 576 0
DWIDTH 6 0
BBX 6 11 0 -2
BITMAP
00
00
00
00
78
C0
70
18
F0
30
60
ENDCHAR
STARTCHAR U+00ff latin small letter y with diaresis
ENCODING 255
SWIDTH 576 0
DWIDTH 6 0
BBX 6 11 0 -2
BITMAP
00
D8
D8
00
D8
D8
D8
D8
78
18
70
ENDCHAR
ENDFONT
